<svg aria-hidden="true" style="position: absolute; width: 0; height: 0; overflow: hidden;" version="1.1" xmlns="http://www.w3.org/2000/svg" xmlns:xlink="http://www.w3.org/1999/xlink">
<defs>
<symbol id="icon-arrow-1" viewBox="0 0 32 32">
<path d="M3.106 15.059l9.318-9.318c0.734-0.753 0.734-1.92 0-2.673-0.753-0.753-1.92-0.753-2.673 0l-10.635 10.654c-0.753 0.734-0.753 1.92 0 2.654l10.635 10.654c0.753 0.753 1.92 0.753 2.673 0 0.734-0.753 0.734-1.92 0-2.673l-9.318-9.299z"></path>
<path d="M4.988 13.176l7.435-7.435c0.734-0.753 0.734-1.92 0-2.673-0.753-0.753-1.92-0.753-2.673 0l-10.635 10.654c-0.753 0.734-0.753 1.92 0 2.654l10.635 10.654c0.753 0.753 1.92 0.753 2.673 0 0.734-0.753 0.734-1.92 0-2.673l-7.435-7.416h27.012v-3.765h-27.012z"></path>
</symbol>
<symbol id="icon-inst" viewBox="0 0 32 32">
<path d="M16 10.248c-1.143 0-2.255 0.335-3.2 0.968s-1.684 1.531-2.118 2.583c-0.434 1.051-0.549 2.202-0.328 3.322 0.221 1.112 0.77 2.141 1.577 2.941 0.8 0.808 1.829 1.356 2.941 1.577 1.12 0.221 2.27 0.107 3.322-0.328s1.95-1.173 2.583-2.118c0.632-0.945 0.968-2.057 0.968-3.192 0-1.531-0.602-2.994-1.684-4.069-1.074-1.082-2.537-1.684-4.061-1.684zM16 20.244c-0.846 0-1.669-0.244-2.362-0.716-0.701-0.465-1.25-1.128-1.57-1.905s-0.404-1.63-0.244-2.453c0.168-0.83 0.571-1.585 1.166-2.179s1.349-0.998 2.179-1.166c0.823-0.16 1.676-0.076 2.453 0.244s1.44 0.869 1.905 1.57c0.472 0.693 0.716 1.516 0.716 2.362 0 1.12-0.45 2.202-1.25 2.994-0.792 0.8-1.874 1.25-2.994 1.25zM21.493 3.749h-10.994c-1.79 0-3.512 0.709-4.777 1.973s-1.973 2.987-1.973 4.777v10.994c0 1.79 0.709 3.512 1.973 4.777s2.987 1.973 4.777 1.973h10.994c1.79 0 3.512-0.709 4.777-1.973s1.973-2.987 1.973-4.777v-10.994c0-1.79-0.709-3.512-1.973-4.777s-2.987-1.973-4.777-1.973zM26.743 21.493c0 1.394-0.549 2.728-1.531 3.718-0.99 0.983-2.324 1.531-3.718 1.531h-10.994c-1.394 0-2.728-0.549-3.718-1.531-0.983-0.99-1.531-2.324-1.531-3.718v-10.994c0-1.394 0.549-2.728 1.531-3.718 0.99-0.983 2.324-1.531 3.718-1.531h10.994c1.394 0 2.728 0.549 3.718 1.531 0.983 0.99 1.531 2.324 1.531 3.718v10.994zM23.749 9.493c0 0.251-0.076 0.495-0.213 0.701s-0.335 0.366-0.564 0.457c-0.229 0.091-0.48 0.122-0.716 0.069-0.244-0.046-0.465-0.168-0.64-0.343s-0.297-0.396-0.343-0.64c-0.053-0.236-0.023-0.488 0.069-0.716s0.259-0.427 0.457-0.564c0.206-0.137 0.45-0.213 0.701-0.213 0.328 0 0.648 0.137 0.884 0.366 0.229 0.236 0.366 0.556 0.366 0.884z"></path>
</symbol>
<symbol id="icon-facebook" viewBox="0 0 32 32">
<path d="M23.985 2.126c-1.349-0.145-2.697-0.213-4.053-0.206-4.48 0-7.269 2.85-7.269 7.451v3.116h-3.764c-0.183 0-0.35 0.076-0.472 0.198-0.13 0.122-0.198 0.297-0.198 0.472v5.135c0 0.175 0.069 0.343 0.198 0.472 0.122 0.122 0.29 0.19 0.472 0.19h3.764v10.293c0 0.175 0.069 0.35 0.198 0.472 0.122 0.122 0.29 0.198 0.472 0.198h5.303c0.175 0 0.343-0.076 0.472-0.198 0.122-0.122 0.19-0.297 0.19-0.472v-10.293h3.756c0.16 0 0.32-0.061 0.442-0.168s0.198-0.251 0.221-0.411l0.663-5.135c0.008-0.091 0-0.19-0.023-0.282-0.030-0.084-0.076-0.168-0.137-0.244-0.061-0.069-0.145-0.13-0.229-0.168s-0.183-0.061-0.274-0.061h-4.419v-2.606c0-1.295 0.259-1.836 1.882-1.836h2.712c0.183 0 0.35-0.069 0.472-0.198 0.13-0.122 0.198-0.29 0.198-0.472v-4.587c0-0.168-0.061-0.32-0.168-0.442s-0.251-0.198-0.411-0.221zM23.23 6.712h-2.057c-2.872 0-3.208 1.806-3.208 3.17v3.276c0 0.175 0.069 0.35 0.198 0.472 0.122 0.122 0.29 0.198 0.465 0.198h4.335l-0.495 3.794h-3.832c-0.183 0-0.35 0.076-0.472 0.198-0.13 0.122-0.198 0.297-0.198 0.472v10.293h-3.97v-10.293c0-0.175-0.069-0.35-0.198-0.472-0.122-0.122-0.29-0.198-0.465-0.198h-3.771v-3.794h3.771c0.175 0 0.343-0.076 0.465-0.198 0.13-0.122 0.198-0.297 0.198-0.472v-3.787c0-3.832 2.217-6.118 5.935-6.118 1.349 0 2.56 0.069 3.299 0.137v3.322z"></path>
</symbol>
<symbol id="icon-phone" viewBox="0 0 32 32">
<path d="M27.65 22.956l-0.175-0.221c-1.371-1.73-2.514-2.636-3.497-2.75-0.853-0.122-1.676 0.472-2.552 1.074l-0.93 0.587c-0.114 0.053-0.229 0.099-0.328 0.13-0.549 0.152-1.928 0.244-2.712-0.472-0.907-0.83-2.316-2.354-3.413-3.68-1.051-1.379-2.202-3.101-2.804-4.175-0.51-0.922-0.084-2.202 0.206-2.674 0.053-0.091 0.122-0.183 0.206-0.274l0.823-0.762c0.015-0.015 0.023-0.030 0.030-0.038s0.023-0.008 0.030-0.015c0.747-0.625 1.516-1.272 1.615-2.103 0.13-0.975-0.48-2.293-1.851-4.030l-0.168-0.213c-0.853-1.090-2.141-2.743-3.985-2.469-0.731 0.107-1.379 0.35-2.050 0.777-0.008 0-0.008 0.008-0.015 0.015-0.008 0-0.015 0-0.015 0.008l-0.937 0.686c-0.008 0.008-0.015 0.023-0.023 0.030s-0.015 0.008-0.023 0.015c-0.107 0.091-0.213 0.183-0.32 0.274-0.945 0.846-2.994 3.291-1.6 7.817 0.899 2.926 2.758 6.331 5.387 9.882l-0.023 0.023 1.448 1.806 0.015-0.008c2.85 3.368 5.745 5.973 8.404 7.55 1.775 1.051 3.322 1.402 4.602 1.402 1.676 0 2.872-0.602 3.474-0.998l0.381-0.251c0.046-0.030 0.076-0.069 0.107-0.107l0.823-0.625c0.008-0.008 0.015-0.015 0.023-0.023s0.015 0 0.015-0.008c0.587-0.533 0.998-1.097 1.28-1.76 0.731-1.707-0.579-3.337-1.448-4.419zM28.114 26.956c-0.221 0.518-0.541 0.952-1.006 1.379l-1.227 0.93c-1.112 0.724-3.49 1.615-6.941-0.434-2.659-1.577-5.585-4.244-8.465-7.71l-0.777-0.99c-2.712-3.589-4.617-7.032-5.516-9.95-1.173-3.794 0.305-5.829 1.288-6.705 0.099-0.091 0.206-0.175 0.305-0.259v-0.008l0.899-0.663c0.541-0.343 1.044-0.533 1.623-0.625 1.242-0.183 2.248 1.12 2.987 2.072l0.175 0.221c1.539 1.935 1.684 2.857 1.638 3.23-0.053 0.419-0.693 0.952-1.25 1.425l-0.076 0.069c-0.008 0-0.008 0.008-0.008 0.008-0.008 0-0.008 0-0.015 0.008l-0.853 0.785c0 0.008-0.008 0.015-0.008 0.023-0.008 0.008-0.023 0.008-0.023 0.015-0.137 0.145-0.244 0.297-0.343 0.45-0.472 0.8-0.93 2.453-0.213 3.733 0.625 1.12 1.806 2.895 2.895 4.32 1.143 1.387 2.59 2.949 3.535 3.81 0.701 0.648 1.684 0.861 2.537 0.861 0.45 0 0.869-0.061 1.189-0.152 0.16-0.046 0.335-0.114 0.51-0.206 0.015 0 0.015-0.015 0.030-0.015 0-0.008 0.015-0.008 0.015-0.008l0.99-0.617c0.030-0.023 0.053-0.053 0.084-0.076l0.008 0.008c0.61-0.419 1.303-0.914 1.737-0.846 0.389 0.046 1.265 0.419 2.804 2.362l0.175 0.221c0.747 0.937 1.775 2.217 1.295 3.337z"></path>
</symbol>
<symbol id="icon-crown" viewBox="0 0 32 32">
<path d="M29.687 10.32c-0.253-0.227-0.56-0.373-0.887-0.42-0.327-0.053-0.653 0-0.953 0.147l-6.313 3.080c-0.027 0.020-0.060 0.027-0.087 0.033-0.033 0-0.067 0-0.093-0.013-0.033-0.007-0.060-0.027-0.087-0.047-0.020-0.027-0.040-0.053-0.060-0.080l-3.687-7.287c-0.147-0.307-0.367-0.553-0.64-0.733-0.267-0.173-0.573-0.267-0.88-0.267-0.313 0-0.62 0.093-0.893 0.267-0.267 0.18-0.487 0.427-0.633 0.733l-3.687 7.287c-0.020 0.027-0.040 0.053-0.060 0.080-0.027 0.020-0.053 0.040-0.087 0.047-0.027 0.013-0.060 0.013-0.093 0.013-0.027-0.007-0.060-0.013-0.087-0.033l-6.313-3.080c-0.3-0.147-0.627-0.2-0.953-0.153s-0.633 0.193-0.88 0.42c-0.253 0.233-0.447 0.533-0.547 0.873-0.107 0.347-0.12 0.713-0.047 1.060l3.187 14.893c0.053 0.253 0.153 0.487 0.293 0.693 0.14 0.213 0.32 0.387 0.52 0.513 0.267 0.18 0.573 0.28 0.887 0.28 0.16-0.007 0.32-0.027 0.48-0.073 5.827-1.773 11.98-1.773 17.807-0.013 0.233 0.073 0.467 0.093 0.707 0.060 0.233-0.027 0.46-0.113 0.66-0.247 0.207-0.127 0.387-0.307 0.527-0.513s0.24-0.447 0.3-0.7l3.173-14.893c0.080-0.347 0.067-0.713-0.033-1.053-0.107-0.34-0.293-0.64-0.54-0.873zM28.807 11.86l-3.187 14.893c-0.013 0.073-0.053 0.133-0.113 0.18-0.060 0.033-0.133 0.040-0.2 0.027-6.093-1.853-12.527-1.853-18.62 0-0.033 0.013-0.067 0.013-0.107 0.007-0.033 0-0.067-0.013-0.093-0.033s-0.053-0.047-0.073-0.080c-0.020-0.027-0.033-0.060-0.040-0.1l-3.187-14.893c-0.007-0.040-0.007-0.080 0-0.12s0.027-0.080 0.053-0.113c0.020-0.033 0.053-0.060 0.087-0.080 0.033-0.013 0.067-0.027 0.107-0.027l0.1 0.027 6.327 3.093c0.4 0.2 0.847 0.22 1.267 0.067 0.413-0.147 0.76-0.467 0.967-0.893l3.693-7.287c0.020-0.040 0.047-0.080 0.087-0.107 0.033-0.020 0.080-0.033 0.127-0.033 0.040 0 0.087 0.013 0.12 0.033 0.040 0.027 0.067 0.067 0.087 0.107l3.687 7.287c0.213 0.427 0.56 0.747 0.973 0.893 0.413 0.153 0.867 0.133 1.267-0.067l6.327-3.093c0.040-0.020 0.087-0.027 0.133-0.020s0.093 0.027 0.127 0.060c0.040 0.033 0.067 0.073 0.080 0.127 0.020 0.047 0.020 0.1 0.007 0.147zM20.747 22.313c-0.020 0.2-0.107 0.393-0.247 0.527-0.14 0.14-0.32 0.213-0.5 0.213h-0.080c-2.607-0.287-5.24-0.287-7.847 0-0.2 0.027-0.393-0.040-0.553-0.173-0.153-0.14-0.253-0.333-0.273-0.553s0.040-0.433 0.167-0.607c0.127-0.167 0.313-0.273 0.507-0.3 2.713-0.32 5.44-0.32 8.153 0 0.193 0.027 0.373 0.133 0.5 0.3 0.127 0.16 0.187 0.38 0.173 0.593z"></path>
</symbol>
<symbol id="icon-medicoments" viewBox="0 0 32 32">
<path d="M8.733 11.713h-8.86c-0.273 0-0.493 0.207-0.493 0.473v2.833c0 0.26 0.22 0.473 0.493 0.473h0.493v10.86c0 0.26 0.22 0.473 0.493 0.473h6.893c0.267 0 0.487-0.213 0.487-0.473v-10.86h0.493c0.273 0 0.493-0.213 0.493-0.473v-2.833c0-0.267-0.22-0.473-0.493-0.473zM3.32 20.687v-0.947h2.953v-0.94h-2.953v-0.947h3.94v6.14h-3.94v-2.36h0.987v-0.947h-0.987zM7.26 16.907h-4.433c-0.273 0-0.493 0.213-0.493 0.473v7.087c0 0.26 0.22 0.473 0.493 0.473h4.433v0.94h-5.907v-10.387h5.907v1.413zM8.24 14.547h-7.873v-1.893h7.873v1.893z"></path>
<path d="M15.26 11.8v-3.453c0-0.267-0.22-0.487-0.493-0.487h-0.493v-2.433h0.987v-0.967h-5.42v0.967h3.447v2.433h-0.493c-0.267 0-0.487 0.22-0.487 0.487v3.453c-1.127 0.227-1.973 1.207-1.973 2.38v12.16c0 0.267 0.22 0.487 0.493 0.487h5.907c0.273 0 0.493-0.22 0.493-0.487v-12.16c0-1.173-0.847-2.153-1.967-2.38zM13.287 8.833h0.987v2.92h-0.987v-2.92zM12.793 12.727h1.973c0.813 0 1.473 0.653 1.473 1.453v0.487h-4.92v-0.487c0-0.8 0.66-1.453 1.473-1.453zM16.24 23.907h-4.92v-0.973h1.967v-0.967h-1.967v-6.327h4.92v8.267zM11.32 25.853v-0.973h4.92v0.973h-4.92z"></path>
<path d="M27.84 11.107h-8.307c-0.253 0-0.46 0.213-0.46 0.48v14.767c0 0.26 0.207 0.473 0.46 0.473h8.307c0.26 0 0.467-0.213 0.467-0.473v-14.767c0-0.267-0.207-0.48-0.467-0.48zM27.38 25.873h-7.38v-13.813h7.38v13.813z"></path>
<path d="M5.533 20.78h1.233v0.607h-1.233v-0.607z"></path>
<path d="M14.153 21.987h1.227v1.213h-1.227v-1.213z"></path>
<path d="M13.84 20.78c1.193 0 2.16-0.947 2.16-2.113s-0.967-2.12-2.16-2.12c-1.187 0-2.153 0.953-2.153 2.12s0.967 2.113 2.153 2.113zM13.84 17.607c0.6 0 1.080 0.473 1.080 1.060 0 0.58-0.48 1.053-1.080 1.053-0.593 0-1.073-0.473-1.073-1.053 0-0.587 0.48-1.060 1.073-1.060z"></path>
<path d="M22.533 15.947h2.307c0.893 0 1.62-0.68 1.62-1.513s-0.727-1.513-1.62-1.513h-2.307c-0.887 0-1.613 0.68-1.613 1.513s0.727 1.513 1.613 1.513zM25.533 14.433c0 0.353-0.307 0.647-0.693 0.647h-0.687v-1.293h0.687c0.387 0 0.693 0.287 0.693 0.647zM22.533 13.787h0.693v1.293h-0.693c-0.38 0-0.693-0.293-0.693-0.647 0-0.36 0.313-0.647 0.693-0.647z"></path>
<path d="M22.533 20.78h2.307c0.893 0 1.62-0.813 1.62-1.813s-0.727-1.813-1.62-1.813h-2.307c-0.887 0-1.613 0.813-1.613 1.813s0.727 1.813 1.613 1.813zM25.533 18.967c0 0.427-0.307 0.78-0.693 0.78h-0.687v-1.56h0.687c0.387 0 0.693 0.353 0.693 0.78zM22.533 18.187h0.693v1.56h-0.693c-0.38 0-0.693-0.353-0.693-0.78s0.313-0.78 0.693-0.78z"></path>
<path d="M22.533 25.013h2.307c0.893 0 1.62-0.813 1.62-1.813s-0.727-1.813-1.62-1.813h-2.307c-0.887 0-1.613 0.813-1.613 1.813s0.727 1.813 1.613 1.813zM25.533 23.2c0 0.427-0.307 0.773-0.693 0.773h-0.687v-1.553h0.687c0.387 0 0.693 0.353 0.693 0.78zM22.533 22.42h0.693v1.553h-0.693c-0.38 0-0.693-0.347-0.693-0.773s0.313-0.78 0.693-0.78z"></path>
</symbol>
<symbol id="icon-Vector" viewBox="0 0 32 32">
<path d="M15.695-0.677c-1.176 0-2.27 0.536-3.2 1.414-0.938 0.871-1.734 2.091-2.396 3.565-0.141 0.305-0.275 0.633-0.402 0.96-0.342-0.052-0.692-0.097-1.034-0.134-0.402-0.037-0.796-0.067-1.176-0.074-1.146-0.030-2.195 0.089-3.111 0.365-1.228 0.372-2.233 1.057-2.82 2.069-0.588 1.020-0.67 2.233-0.38 3.475s0.945 2.545 1.89 3.862c0.194 0.275 0.409 0.551 0.633 0.826-0.223 0.268-0.432 0.543-0.633 0.826-0.945 1.317-1.6 2.612-1.89 3.862-0.29 1.243-0.208 2.456 0.38 3.475 0.588 1.012 1.593 1.697 2.82 2.069 1.22 0.365 2.672 0.454 4.287 0.29 0.335-0.037 0.685-0.082 1.034-0.134 0.119 0.327 0.253 0.647 0.402 0.96 0.662 1.474 1.459 2.694 2.396 3.572 0.93 0.871 2.024 1.407 3.2 1.407 1.168 0 2.262-0.536 3.2-1.407 0.93-0.878 1.727-2.099 2.396-3.572 0.141-0.313 0.275-0.633 0.402-0.96 0.35 0.052 0.692 0.097 1.027 0.134 1.615 0.164 3.066 0.074 4.287-0.29 1.228-0.372 2.24-1.057 2.82-2.069 0.588-1.020 0.67-2.233 0.38-3.475s-0.945-2.545-1.883-3.862c-0.208-0.283-0.417-0.558-0.633-0.826 0.216-0.268 0.424-0.543 0.633-0.826 0.938-1.317 1.6-2.62 1.89-3.862s0.201-2.456-0.387-3.475c-0.58-1.012-1.593-1.697-2.813-2.069-0.923-0.275-1.965-0.394-3.111-0.365-0.387 0.007-0.774 0.037-1.183 0.074-0.335 0.030-0.677 0.082-1.027 0.134-0.127-0.327-0.26-0.647-0.402-0.96-0.67-1.474-1.466-2.694-2.396-3.565-0.938-0.878-2.032-1.414-3.2-1.414v0zM15.695 0.633c0.781 0 1.548 0.342 2.307 1.057 0.759 0.707 1.481 1.786 2.099 3.148 0.104 0.223 0.194 0.447 0.283 0.67-1.488 0.335-3.073 0.841-4.688 1.526-1.622-0.677-3.2-1.191-4.696-1.526 0.089-0.231 0.186-0.454 0.283-0.67 0.618-1.362 1.34-2.441 2.099-3.155 0.767-0.707 1.533-1.049 2.314-1.049v0zM7.070 6.355c0.127 0 0.253 0 0.387 0 0.342 0.007 0.7 0.030 1.072 0.067 0.238 0.022 0.484 0.060 0.729 0.089-0.461 1.466-0.811 3.088-1.027 4.83-1.399 1.057-2.634 2.173-3.669 3.304-0.149-0.194-0.298-0.387-0.439-0.588-0.871-1.213-1.444-2.374-1.682-3.393-0.238-1.012-0.149-1.846 0.246-2.523 0.387-0.677 1.072-1.168 2.061-1.473 0.655-0.201 1.444-0.305 2.322-0.313v0zM24.313 6.355c0.886 0.007 1.667 0.112 2.322 0.313 0.997 0.305 1.674 0.796 2.069 1.474 0.387 0.677 0.476 1.511 0.238 2.523-0.238 1.020-0.811 2.18-1.682 3.393-0.141 0.201-0.29 0.394-0.439 0.588-1.034-1.131-2.27-2.24-3.661-3.304-0.223-1.741-0.573-3.364-1.034-4.83 0.246-0.030 0.491-0.067 0.729-0.089 0.357-0.037 0.714-0.060 1.079-0.067 0.127 0 0.253 0 0.38 0v0zM20.83 6.75c0.35 1.079 0.633 2.262 0.848 3.535-0.692-0.469-1.399-0.908-2.121-1.325s-1.466-0.811-2.21-1.176c1.206-0.454 2.381-0.796 3.483-1.034v0zM10.553 6.75c1.109 0.238 2.277 0.58 3.49 1.034-0.752 0.365-1.488 0.759-2.218 1.176-0.722 0.417-1.429 0.856-2.121 1.325 0.216-1.273 0.506-2.456 0.848-3.535zM15.695 8.454c1.057 0.469 2.136 1.012 3.207 1.63 1.072 0.625 2.084 1.287 3.021 1.972 0.127 1.153 0.194 2.352 0.194 3.594s-0.067 2.441-0.194 3.594c-0.938 0.685-1.942 1.347-3.021 1.965-1.072 0.625-2.151 1.168-3.207 1.637-1.064-0.469-2.143-1.012-3.215-1.637-1.072-0.618-2.084-1.28-3.021-1.965-0.119-1.146-0.186-2.352-0.186-3.594s0.067-2.441 0.186-3.594c0.938-0.685 1.95-1.347 3.021-1.972 1.072-0.618 2.151-1.161 3.215-1.63v0zM15.777 10.419l-3.728 2.3 3.728 2.307 3.736-2.307-3.736-2.3zM8.052 13.15c-0.060 0.834-0.089 1.667-0.089 2.5 0 0.848 0.030 1.689 0.089 2.5-0.99-0.819-1.883-1.66-2.642-2.5 0.759-0.841 1.645-1.682 2.642-2.5zM23.33 13.15c0.997 0.819 1.883 1.66 2.642 2.5-0.759 0.841-1.645 1.682-2.642 2.5 0.060-0.834 0.089-1.667 0.089-2.5 0-0.848-0.030-1.689-0.089-2.5v0zM11.207 13.73v4.554l3.922 2.419v-4.547l-3.922-2.426zM20.354 13.738l-3.922 2.419v4.547l3.922-2.419v-4.547zM4.562 16.655c1.034 1.131 2.27 2.24 3.669 3.304 0.216 1.741 0.566 3.364 1.027 4.83-0.246 0.030-0.491 0.060-0.729 0.089-1.481 0.149-2.783 0.052-3.773-0.246-0.997-0.305-1.682-0.796-2.069-1.474-0.394-0.677-0.476-1.511-0.246-2.523 0.238-1.020 0.811-2.188 1.682-3.401 0.141-0.194 0.29-0.387 0.439-0.58zM26.82 16.655c0.156 0.194 0.305 0.387 0.439 0.58 0.871 1.213 1.444 2.381 1.682 3.401 0.238 1.012 0.149 1.846-0.238 2.523-0.394 0.677-1.072 1.168-2.069 1.474-0.997 0.298-2.292 0.387-3.78 0.246-0.246-0.030-0.484-0.060-0.729-0.089 0.461-1.466 0.811-3.088 1.034-4.83 1.392-1.064 2.627-2.173 3.661-3.304v0zM21.678 21.016c-0.216 1.273-0.499 2.456-0.848 3.535-1.101-0.238-2.277-0.58-3.483-1.034 0.752-0.365 1.488-0.759 2.21-1.176s1.429-0.856 2.121-1.325v0zM9.704 21.016c0.692 0.469 1.399 0.908 2.121 1.325 0.729 0.417 1.466 0.811 2.218 1.176-1.213 0.454-2.381 0.796-3.49 1.034-0.35-1.079-0.633-2.262-0.848-3.535zM15.732 21.075l0.045 0.030 0.052-0.030h-0.097zM15.695 24.268c1.615 0.677 3.2 1.191 4.688 1.526-0.089 0.223-0.179 0.447-0.283 0.67-0.618 1.362-1.34 2.441-2.099 3.155-0.759 0.707-1.526 1.049-2.307 1.049s-1.548-0.342-2.314-1.049c-0.759-0.714-1.481-1.794-2.099-3.155-0.097-0.223-0.194-0.447-0.283-0.67 1.496-0.335 3.073-0.848 4.696-1.526v0z"></path>
</symbol>
</defs>
</svg>
