<svg width="72.000000" height="42.000000" viewBox="0 0 72 42" fill="none" xmlns="http://www.w3.org/2000/svg" xmlns:xlink="http://www.w3.org/1999/xlink">
	<desc>
			Created with Pixso.
	</desc>
	<defs/>
	<path id="logo" d="M7.22 16L0.39 16L0.39 -0.01L6.79 -0.01C10.32 -0.01 12.11 1.7 12.11 4.1C12.11 5.98 10.88 7.16 9.22 7.54L9.22 7.69C11.03 7.78 12.73 9.21 12.73 11.57C12.73 14.12 10.82 16 7.22 16ZM58.58 4L60.84 4L60.84 6.49L58.58 6.49L58.58 12.31C58.58 13.23 59.04 13.48 59.71 13.48C60.02 13.48 60.37 13.4 60.53 13.37L61.06 15.84C60.72 15.96 60.11 16.13 59.25 16.16C56.84 16.26 55.24 15.1 55.25 12.75L55.25 6.49L53.61 6.49L53.61 4L55.25 4L55.25 1.12L58.58 1.12L58.58 4ZM3.77 2.73L3.77 6.69L6.28 6.69C7.66 6.69 8.69 5.92 8.69 4.66C8.69 3.5 7.84 2.73 6.34 2.73L3.77 2.73ZM25.77 12.56C25.3 14.79 23.3 16.23 20.33 16.23C16.63 16.23 14.38 13.85 14.38 10.05C14.38 6.35 16.67 3.84 20.2 3.84C23.37 3.84 25.84 5.85 25.84 9.93L25.84 10.84L17.66 10.84L17.66 10.85C17.66 12.64 18.72 13.74 20.39 13.74C21.49 13.74 22.35 13.27 22.69 12.35L25.77 12.56ZM34.94 14.33C34.35 15.45 33.21 16.22 31.43 16.22C29.14 16.22 27.45 15.02 27.45 12.64C27.45 9.96 29.58 9.17 31.96 8.95C34.04 8.74 34.86 8.64 34.86 7.87L34.86 7.83C34.86 6.84 34.21 6.27 33.08 6.27C31.89 6.27 31.17 6.85 30.95 7.65L27.87 7.4C28.33 5.22 30.22 3.84 33.1 3.84C35.77 3.84 38.19 5.04 38.19 7.9L38.19 16L35.03 16L35.03 14.33L34.94 14.33ZM46.18 13.34C47.38 13.34 48.48 12.49 48.47 10.89L48.47 4L51.8 4L51.8 16L48.61 16L48.61 13.81L48.48 13.81C47.94 15.22 46.65 16.15 44.84 16.15C42.42 16.15 40.79 14.44 40.77 11.63L40.77 4L44.1 4L44.1 11.04C44.11 12.46 44.93 13.34 46.18 13.34ZM20.25 6.32C18.78 6.32 17.74 7.42 17.66 8.78L22.71 8.78C22.7 7.35 21.7 6.32 20.25 6.32ZM3.77 8.98L3.77 13.23L6.53 13.23C8.42 13.23 9.24 12.44 9.24 11.24C9.24 9.91 8.23 8.98 6.61 8.98L3.77 8.98ZM30.63 12.54C30.63 13.45 31.36 13.93 32.39 13.93C33.85 13.93 34.88 12.97 34.88 11.7L34.88 10.43C34.49 10.7 33.3 10.87 32.57 10.97C31.4 11.13 30.63 11.6 30.63 12.54ZM30.46 37L18.21 37L18.21 34.99L26.19 23.78L18.19 23.78L18.19 20.99L30.44 20.99L30.44 23L22.45 34.21L30.46 34.21L30.46 37ZM44.31 31.04C44.31 34.74 42.05 37.23 38.41 37.23C34.77 37.23 32.5 34.74 32.5 31.04C32.5 27.32 34.77 24.84 38.41 24.84C42.05 24.84 44.31 27.32 44.31 31.04ZM52.09 27.61C50.75 27.61 49.82 28.51 49.82 30.06L49.82 37L46.49 37L46.49 25L49.66 25L49.66 27.11L49.8 27.11C50.34 25.72 51.63 24.84 53.41 24.84C55.91 24.84 57.55 26.56 57.55 29.35L57.55 37L54.22 37L54.22 29.95C54.23 28.48 53.43 27.61 52.09 27.61ZM71.07 33.56C70.61 35.79 68.6 37.23 65.63 37.23C61.94 37.23 59.68 34.85 59.68 31.05C59.68 27.35 61.97 24.84 65.5 24.84C68.67 24.84 71.14 26.85 71.14 30.93L71.14 31.84L62.97 31.84L62.97 31.85C62.97 33.64 64.03 34.74 65.69 34.74C66.8 34.74 67.66 34.27 68 33.35L71.07 33.56ZM6.85 38.29C6.17 40.23 4.85 41.5 2.38 41.5C1.54 41.5 0.76 41.36 0.28 41.15L1.04 38.67C2.21 39.03 3.04 38.97 3.48 37.85L3.67 37.34L-0.63 25L2.87 25L5.35 33.81L5.48 33.81L7.99 25L11.51 25L6.85 38.29ZM65.56 27.32C64.08 27.32 63.04 28.42 62.97 29.78L68.01 29.78C68 28.35 67 27.32 65.56 27.32ZM35.89 31.02C35.89 33.11 36.75 34.65 38.43 34.65C40.08 34.65 40.93 33.11 40.93 31.02C40.93 28.92 40.08 27.38 38.43 27.38C36.75 27.38 35.89 28.92 35.89 31.02Z" fill="#2B7FFF" fill-opacity="1.000000" fill-rule="evenodd"/>
</svg>
